<svg width="20" height="20" viewBox="0 0 20 20" fill="none" xmlns="http://www.w3.org/2000/svg">
<path d="M15.8333 9.16671H10.8333V4.16671C10.8333 3.94569 10.7455 3.73373 10.5893 3.57745C10.433 3.42117 10.221 3.33337 10 3.33337C9.779 3.33337 9.56703 3.42117 9.41075 3.57745C9.25447 3.73373 9.16668 3.94569 9.16668 4.16671V9.16671H4.16668C3.94566 9.16671 3.7337 9.2545 3.57742 9.41078C3.42114 9.56706 3.33334 9.77903 3.33334 10C3.33334 10.2211 3.42114 10.433 3.57742 10.5893C3.7337 10.7456 3.94566 10.8334 4.16668 10.8334H9.16668V15.8334C9.16668 16.0544 9.25447 16.2663 9.41075 16.4226C9.56703 16.5789 9.779 16.6667 10 16.6667C10.221 16.6667 10.433 16.5789 10.5893 16.4226C10.7455 16.2663 10.8333 16.0544 10.8333 15.8334V10.8334H15.8333C16.0544 10.8334 16.2663 10.7456 16.4226 10.5893C16.5789 10.433 16.6667 10.2211 16.6667 10C16.6667 9.77903 16.5789 9.56706 16.4226 9.41078C16.2663 9.2545 16.0544 9.16671 15.8333 9.16671Z" fill="white"/>
</svg>
