<svg width="20" height="21" viewBox="0 0 20 21" fill="none" xmlns="http://www.w3.org/2000/svg">
<path d="M15.8333 9.1993H10.8333V4.1993C10.8333 3.97829 10.7455 3.76632 10.5892 3.61004C10.4329 3.45376 10.2209 3.36597 9.99992 3.36597C9.7789 3.36597 9.56694 3.45376 9.41066 3.61004C9.25438 3.76632 9.16658 3.97829 9.16658 4.1993V9.1993H4.16659C3.94557 9.1993 3.73361 9.2871 3.57733 9.44338C3.42105 9.59966 3.33325 9.81162 3.33325 10.0326C3.33325 10.2536 3.42105 10.4656 3.57733 10.6219C3.73361 10.7782 3.94557 10.866 4.16659 10.866H9.16658V15.866C9.16658 16.087 9.25438 16.2989 9.41066 16.4552C9.56694 16.6115 9.7789 16.6993 9.99992 16.6993C10.2209 16.6993 10.4329 16.6115 10.5892 16.4552C10.7455 16.2989 10.8333 16.087 10.8333 15.866V10.866H15.8333C16.0543 10.866 16.2662 10.7782 16.4225 10.6219C16.5788 10.4656 16.6666 10.2536 16.6666 10.0326C16.6666 9.81162 16.5788 9.59966 16.4225 9.44338C16.2662 9.2871 16.0543 9.1993 15.8333 9.1993Z" fill="url(#paint0_linear_112_1010)"/>
<defs>
<linearGradient id="paint0_linear_112_1010" x1="9.99992" y1="3.36597" x2="9.99992" y2="16.6993" gradientUnits="userSpaceOnUse">
<stop stop-color="#D70900"/>
<stop offset="1" stop-color="#BF0B1C"/>
</linearGradient>
</defs>
</svg>
