<svg width="21" height="21" viewBox="0 0 21 21" fill="none" xmlns="http://www.w3.org/2000/svg">
<path d="M17.7583 7.80685L12.7583 2.80685C12.6815 2.73189 12.591 2.67247 12.4917 2.63185C12.3883 2.58987 12.2782 2.56727 12.1667 2.56519H5.5C4.83696 2.56519 4.20107 2.82858 3.73223 3.29742C3.26339 3.76626 3 4.40214 3 5.06519V15.0652C3 15.7282 3.26339 16.3641 3.73223 16.833C4.20107 17.3018 4.83696 17.5652 5.5 17.5652H15.5C16.163 17.5652 16.7989 17.3018 17.2678 16.833C17.7366 16.3641 18 15.7282 18 15.0652V8.39852C18.0006 8.28885 17.9796 8.18013 17.9381 8.0786C17.8967 7.97707 17.8356 7.88472 17.7583 7.80685ZM8 4.23185H11.3333V5.89852H8V4.23185ZM13 15.8985H8V13.3985C8 13.1775 8.0878 12.9655 8.24408 12.8093C8.40036 12.653 8.61232 12.5652 8.83333 12.5652H12.1667C12.3877 12.5652 12.5996 12.653 12.7559 12.8093C12.9122 12.9655 13 13.1775 13 13.3985V15.8985ZM16.3333 15.0652C16.3333 15.2862 16.2455 15.4982 16.0893 15.6544C15.933 15.8107 15.721 15.8985 15.5 15.8985H14.6667V13.3985C14.6667 12.7355 14.4033 12.0996 13.9344 11.6308C13.4656 11.1619 12.8297 10.8985 12.1667 10.8985H8.83333C8.17029 10.8985 7.53441 11.1619 7.06557 11.6308C6.59673 12.0996 6.33333 12.7355 6.33333 13.3985V15.8985H5.5C5.27899 15.8985 5.06702 15.8107 4.91074 15.6544C4.75446 15.4982 4.66667 15.2862 4.66667 15.0652V5.06519C4.66667 4.84417 4.75446 4.63221 4.91074 4.47593C5.06702 4.31965 5.27899 4.23185 5.5 4.23185H6.33333V6.73185C6.33333 6.95287 6.42113 7.16483 6.57741 7.32111C6.73369 7.47739 6.94565 7.56519 7.16667 7.56519H12.1667C12.3877 7.56519 12.5996 7.47739 12.7559 7.32111C12.9122 7.16483 13 6.95287 13 6.73185V5.40685L16.3333 8.74019V15.0652Z" fill="white"/>
</svg>
