<svg width="40" height="40" viewBox="0 0 40 40" fill="none" xmlns="http://www.w3.org/2000/svg">
<circle cx="20" cy="20" r="20" fill="#059669"/>
<path d="M28.3876 14.0125C28.2714 13.8953 28.1331 13.8024 27.9808 13.7389C27.8285 13.6754 27.6651 13.6428 27.5001 13.6428C27.335 13.6428 27.1717 13.6754 27.0193 13.7389C26.867 13.8024 26.7288 13.8953 26.6126 14.0125L17.3001 23.3375L13.3876 19.4125C13.2669 19.296 13.1245 19.2043 12.9684 19.1428C12.8123 19.0813 12.6457 19.0511 12.478 19.054C12.3102 19.0569 12.1447 19.0929 11.9909 19.1597C11.837 19.2266 11.6979 19.3231 11.5813 19.4438C11.4648 19.5644 11.3731 19.7068 11.3116 19.8629C11.2501 20.019 11.2199 20.1856 11.2228 20.3534C11.2257 20.5211 11.2617 20.6866 11.3285 20.8404C11.3954 20.9943 11.4919 21.1335 11.6126 21.25L16.4126 26.05C16.5288 26.1672 16.667 26.2602 16.8193 26.3236C16.9717 26.3871 17.135 26.4198 17.3001 26.4198C17.4651 26.4198 17.6285 26.3871 17.7808 26.3236C17.9331 26.2602 18.0714 26.1672 18.1876 26.05L28.3876 15.85C28.5144 15.733 28.6157 15.5909 28.685 15.4328C28.7542 15.2746 28.79 15.1039 28.79 14.9313C28.79 14.7586 28.7542 14.5879 28.685 14.4298C28.6157 14.2716 28.5144 14.1296 28.3876 14.0125Z" fill="white"/>
</svg>
